HIERARCHY
ROOT Hips
{
	OFFSET 0.000000 0.000000 0.000000
	CHANNELS 6 Xposition Yposition Zposition Zrotation Yrotation Xrotation 
	JOINT LowerBack
	{
		OFFSET 0.000000 0.000000 0.000000
		CHANNELS 3 Zrotation Yrotation Xrotation
		JOINT Spine
		{
			OFFSET 0.028270 2.035590 -0.193380
			CHANNELS 3 Zrotation Yrotation Xrotation
			JOINT Spine1
			{
				OFFSET 0.056720 2.048850 -0.042750
				CHANNELS 3 Zrotation Yrotation Xrotation
				JOINT Neck
				{
					OFFSET 0.000000 0.000000 0.000000
					CHANNELS 3 Zrotation Yrotation Xrotation
					JOINT Neck1
					{
						OFFSET -0.054170 1.746240 0.172020
						CHANNELS 3 Zrotation Yrotation Xrotation
						JOINT Head
						{
							OFFSET 0.104070 1.761360 -0.123970
							CHANNELS 3 Zrotation Yrotation Xrotation
							End Site
							{
								OFFSET 0.000000 0.000000 0.000000
							}
						}
					}
				}
				JOINT LeftShoulder
				{
					OFFSET 0.000000 0.000000 0.000000
					CHANNELS 3 Zrotation Yrotation Xrotation
					JOINT LeftArm
					{
						OFFSET 3.362410 1.200890 -0.311210
						CHANNELS 3 Zrotation Yrotation Xrotation
						JOINT LeftForeArm
						{
							OFFSET 4.983000 -0.000000 -0.000000
							CHANNELS 3 Zrotation Yrotation Xrotation
							JOINT LeftHand
							{
								OFFSET 3.483560 -0.000000 -0.000000
								CHANNELS 3 Zrotation Yrotation Xrotation
								JOINT LeftFingerBase
								{
									OFFSET 0.000000 0.000000 0.000000
									CHANNELS 3 Zrotation Yrotation Xrotation
									JOINT LeftHandIndex1
									{
										OFFSET 0.715260 -0.000000 -0.000000
										CHANNELS 3 Zrotation Yrotation Xrotation
										End Site
										{
											OFFSET 0.000000 0.000000 0.000000
										}
									}
								}
								JOINT LThumb
								{
									OFFSET 0.000000 0.000000 0.000000
									CHANNELS 3 Zrotation Yrotation Xrotation
									End Site
									{
										OFFSET 0.000000 0.000000 0.000000
									}
								}
							}
						}
					}
				}
				JOINT RightShoulder
				{
					OFFSET 0.000000 0.000000 0.000000
					CHANNELS 3 Zrotation Yrotation Xrotation
					JOINT RightArm
					{
						OFFSET -3.136600 1.374050 -0.404650
						CHANNELS 3 Zrotation Yrotation Xrotation
						JOINT RightForeArm
						{
							OFFSET -5.241900 -0.000000 -0.000000
							CHANNELS 3 Zrotation Yrotation Xrotation
							JOINT RightHand
							{
								OFFSET -3.444170 -0.000000 -0.000000
								CHANNELS 3 Zrotation Yrotation Xrotation
								JOINT RightFingerBase
								{
									OFFSET 0.000000 0.000000 0.000000
									CHANNELS 3 Zrotation Yrotation Xrotation
									JOINT RightHandIndex1
									{
										OFFSET -0.622530 -0.000000 -0.000000
										CHANNELS 3 Zrotation Yrotation Xrotation
										End Site
										{
											OFFSET 0.000000 0.000000 0.000000
										}
									}
								}
								JOINT RThumb
								{
									OFFSET 0.000000 0.000000 0.000000
									CHANNELS 3 Zrotation Yrotation Xrotation
									End Site
									{
										OFFSET 0.000000 0.000000 0.000000
									}
								}
							}
						}
					}
				}
			}
		}
	}
}
}
MOTION
Frames: 18
Frame Time: 0.008333
2.468452 16.037992 2.251121 -13.442725 -80.958837 32.084014 5.043830 -3.935650 -0.465322 0.065860 -4.344276 -3.754630 -7.723617 -4.385592 -4.192414 12.914797 -9.777548 -2.272882 -3.549814 -0.320337 1.443411 0.000000 0.000000 0.000000 16.642331 -6.099301 -5.096769 -78.115469 -62.528088 15.831603 179.200607 -69.995488 179.725764 13.721518 -17.904375 -2.379028 -0.143605 1.464382 -0.000000 0.000000 0.000000 0.000000 0.000000 0.000000 0.000000 12.407096 -8.050275 1.995627 55.514581 -1.424402 -2.843599 179.904434 74.435812 179.864051 -19.780905 14.717936 -2.740655 0.314071 -0.675871 -0.000000 0.000000 0.000000 0.000000 0.000000 0.000000 0.000000 
2.430025 16.060178 2.281299 -9.505262 -78.181382 28.566055 4.755097 -3.874090 -0.933296 0.030410 -4.274073 -3.831005 -7.628921 -4.319254 -4.065612 12.724058 -10.187287 -2.610051 -3.520791 -0.315414 1.354762 0.000000 0.000000 0.000000 16.538563 -5.960913 -5.232789 -79.478020 -62.393692 18.077844 179.307311 -70.167143 179.731932 13.521173 -17.992442 -2.355978 -0.147911 1.466012 -0.000000 0.000000 0.000000 0.000000 0.000000 0.000000 0.000000 12.241945 -8.175069 2.253148 54.222120 -4.324370 -4.506728 179.835189 74.773912 179.873918 -19.661168 14.802331 -2.735383 0.317438 -0.654081 0.000000 0.000000 0.000000 0.000000 0.000000 0.000000 0.000000 
2.387844 16.088368 2.310307 -6.354412 -75.254175 25.906547 4.327348 -3.851104 -1.439928 -0.021713 -4.231382 -3.906204 -7.492866 -4.281098 -3.902805 12.479832 -10.651140 -2.971334 -3.477165 -0.309255 1.259367 0.000000 0.000000 0.000000 16.398286 -5.815399 -5.375451 -80.729446 -62.193424 20.217600 179.406553 -70.294702 179.738268 13.323648 -18.080276 -2.333150 -0.152630 1.467088 -0.000000 0.000000 0.000000 0.000000 0.000000 0.000000 0.000000 12.003001 -8.384078 2.512249 52.934001 -7.141949 -6.099893 179.776267 75.331796 179.883603 -19.633567 14.872742 -2.740136 0.321466 -0.629864 -0.000000 0.000000 0.000000 0.000000 0.000000 0.000000 0.000000 
2.342021 16.122070 2.338653 -3.722090 -72.207918 23.838194 3.768719 -3.863565 -1.973034 -0.089491 -4.212452 -3.977806 -7.315973 -4.267159 -3.705109 12.182941 -11.155330 -3.350875 -3.415561 -0.301598 1.158646 0.000000 0.000000 0.000000 16.216240 -5.661781 -5.516756 -81.841932 -61.948388 22.222780 179.495640 -70.387271 179.744595 13.134390 -18.166439 -2.311147 -0.157494 1.467341 -0.000000 0.000000 0.000000 0.000000 0.000000 0.000000 0.000000 11.675465 -8.663998 2.770946 51.661789 -9.827189 -7.604016 179.730762 76.130560 179.893100 -19.658378 14.902884 -2.744617 0.325301 -0.603503 0.000000 0.000000 0.000000 0.000000 0.000000 0.000000 0.000000 
2.293026 16.160685 2.366804 -1.454489 -69.070028 22.204958 3.089274 -3.910082 -2.515818 -0.172100 -4.215566 -4.042504 -7.101230 -4.275386 -3.474361 11.836445 -11.686624 -3.742798 -3.332829 -0.292179 1.053921 0.000000 0.000000 0.000000 15.987185 -5.499188 -5.648336 -82.793143 -61.689511 24.075881 179.571965 -70.458058 179.750644 12.966013 -18.238882 -2.290875 -0.162459 1.466219 -0.000000 0.000000 0.000000 0.000000 0.000000 0.000000 0.000000 11.244460 -9.000563 3.027637 50.420745 -12.327004 -9.012108 179.700870 77.174509 179.902367 -19.684565 14.877575 -2.738929 0.328078 -0.575779 0.000000 0.000000 0.000000 0.000000 0.000000 0.000000 0.000000 
2.241402 16.203505 2.395261 0.540922 -65.868360 20.910861 2.301730 -3.989110 -3.050301 -0.268648 -4.239334 -4.097922 -6.853244 -4.304242 -3.217101 11.446191 -12.221674 -4.137342 -3.227555 -0.280901 0.947571 0.000000 0.000000 0.000000 15.710249 -5.329433 -5.762316 -83.577436 -61.443537 25.773503 179.634656 -70.523312 179.756256 12.823783 -18.291628 -2.272440 -0.167350 1.463392 -0.000000 0.000000 0.000000 0.000000 0.000000 0.000000 0.000000 10.702939 -9.365915 3.281570 49.214962 -14.611530 -10.330294 179.687346 78.439706 179.911306 -19.663942 14.790474 -2.715368 0.329261 -0.547758 0.000000 0.000000 0.000000 0.000000 0.000000 0.000000 0.000000 
2.188076 16.249761 2.424527 2.321014 -62.635724 19.892472 1.422681 -4.096820 -3.556564 -0.377883 -4.280714 -4.141824 -6.577612 -4.350564 -2.942090 11.018340 -12.736993 -4.524295 -3.099661 -0.267775 0.842071 0.000000 0.000000 0.000000 15.386755 -5.153877 -5.853289 -84.201119 -61.235919 27.322658 179.683581 -70.598685 179.761322 12.710001 -18.319700 -2.255943 -0.171951 1.458632 -0.000000 0.000000 0.000000 0.000000 0.000000 0.000000 0.000000 10.048155 -9.729318 3.532927 48.041296 -16.662399 -11.572404 179.689474 79.882755 179.919782 -19.560509 14.651459 -2.671329 0.328709 -0.520744 0.000000 0.000000 0.000000 0.000000 0.000000 0.000000 0.000000 
2.134149 16.298634 2.454998 3.921729 -59.410518 19.103721 0.472040 -4.226437 -4.014791 -0.498067 -4.334370 -4.172412 -6.280097 -4.408938 -2.659695 10.558759 -13.211104 -4.894054 -2.950342 -0.252927 0.739738 0.000000 0.000000 0.000000 15.019393 -4.972379 -5.918945 -84.683468 -61.086781 28.740026 179.719235 -70.699472 179.765780 12.623706 -18.319808 -2.240582 -0.176023 1.451816 -0.000000 0.000000 0.000000 0.000000 0.000000 0.000000 0.000000 9.281933 -10.059783 3.782729 46.886687 -18.473000 -12.754642 179.705303 81.447571 179.927650 -19.359818 14.484561 -2.609706 0.326723 -0.496046 0.000000 0.000000 0.000000 0.000000 0.000000 0.000000 0.000000 
2.080943 16.349297 2.486966 5.366031 -56.237373 18.508952 -0.526017 -4.367967 -4.407403 -0.626533 -4.392459 -4.188456 -5.965871 -4.471481 -2.380416 10.071398 -13.627202 -5.238438 -2.781620 -0.236562 0.642546 0.000000 0.000000 0.000000 14.610252 -4.782665 -5.959607 -85.051616 -61.010500 30.047315 179.742675 -70.839691 179.769660 12.559043 -18.292791 -2.225657 -0.179216 1.442988 -0.000000 0.000000 0.000000 0.000000 0.000000 0.000000 0.000000 8.408007 -10.329614 4.032486 45.729300 -20.043273 -13.888509 179.732090 83.074074 179.934785 -19.069224 14.322112 -2.538190 0.323907 -0.474813 0.000000 0.000000 0.000000 0.000000 0.000000 0.000000 0.000000 
2.029845 16.400935 2.520524 6.667701 -53.165097 18.078716 -1.545111 -4.508634 -4.721197 -0.759876 -4.444847 -4.189661 -5.639028 -4.528084 -2.114379 9.558309 -13.973501 -5.550698 -2.596205 -0.218962 0.552177 0.000000 0.000000 0.000000 14.160912 -4.581263 -5.978004 -85.337976 -61.014431 31.267874 179.755069 -71.029122 179.773013 12.508076 -18.242337 -2.210164 -0.181171 1.432343 -0.000000 0.000000 0.000000 0.000000 0.000000 0.000000 0.000000 7.432288 -10.515668 4.283818 44.536503 -21.378666 -14.974966 179.766745 84.704347 179.941093 -18.716688 14.196856 -2.466571 0.321075 -0.457901 0.000000 0.000000 0.000000 0.000000 0.000000 0.000000 0.000000 
1.982122 16.452726 2.555620 7.836086 -50.244811 17.787533 -2.556773 -4.633864 -4.949108 -0.893747 -4.479967 -4.176792 -5.302128 -4.567249 -1.870156 9.019110 -14.243168 -5.825613 -2.396952 -0.200445 0.470003 0.000000 0.000000 0.000000 13.669848 -4.363002 -5.977778 -85.574357 -61.100455 32.422932 179.757600 -71.273251 179.775919 12.461372 -18.174131 -2.192897 -0.181527 1.420181 -0.000000 0.000000 0.000000 0.000000 0.000000 0.000000 0.000000 6.360391 -10.600364 4.538019 43.268180 -22.482944 -16.000330 179.806682 86.290791 179.946801 -18.342943 14.135051 -2.404745 0.319079 -0.445844 -0.000000 0.000000 0.000000 0.000000 0.000000 0.000000 0.000000 
1.939279 16.503961 2.592038 8.871952 -47.526243 17.611093 -3.532552 -4.729079 -5.089263 -1.023152 -4.486300 -4.151469 -4.956200 -4.577552 -1.654834 8.451129 -14.433894 -6.059110 -2.186630 -0.181338 0.397235 0.000000 0.000000 0.000000 13.132610 -4.123670 -5.962776 -85.787192 -61.265649 33.526661 179.751064 -71.572461 179.778448 12.409579 -18.096528 -2.173455 -0.179925 1.406932 -0.000000 0.000000 0.000000 0.000000 0.000000 0.000000 0.000000 5.197164 -10.572472 4.795558 41.876580 -23.354427 -16.934811 179.848799 87.801475 179.950995 -17.992327 14.151932 -2.360307 0.318684 -0.438878 -0.000000 0.000000 0.000000 0.000000 0.000000 0.000000 0.000000 
1.902409 16.554026 2.629495 9.772963 -45.057180 17.532976 -4.441484 -4.780245 -5.149068 -1.141862 -4.453001 -4.116821 -4.600942 -4.548288 -1.473054 7.849846 -14.544504 -6.247733 -1.968076 -0.161992 0.335050 0.000000 0.000000 0.000000 12.538737 -3.858815 -5.934500 -85.993030 -61.503445 34.585735 179.736328 -71.926664 179.780642 12.347346 -18.015271 -2.151329 -0.176220 1.392948 -0.000000 0.000000 0.000000 0.000000 0.000000 0.000000 0.000000 3.948110 -10.424704 5.056049 40.307649 -23.981650 -17.735583 179.892777 89.225251 179.954551 -17.703428 14.250978 -2.338354 0.320509 -0.436976 -0.000000 0.000000 0.000000 0.000000 0.000000 0.000000 0.000000 
1.872439 16.602255 2.667382 10.543350 -42.873345 17.525732 -5.265766 -4.778495 -5.135581 -1.245787 -4.373201 -4.075479 -4.234576 -4.472620 -1.327961 7.211665 -14.576777 -6.389012 -1.744065 -0.142747 0.284448 0.000000 0.000000 0.000000 11.883711 -3.566981 -5.896055 -86.204433 -61.802334 35.597427 179.713300 -72.326638 179.782510 12.268707 -17.939582 -2.126817 -0.170156 1.378703 -0.000000 0.000000 0.000000 0.000000 0.000000 0.000000 0.000000 2.622468 -10.158638 5.317160 38.503586 -24.340849 -18.348419 -0.061580 89.426457 -0.042802 -17.505153 14.423703 -2.340786 0.324957 -0.439849 -0.000000 0.000000 0.000000 0.000000 0.000000 0.000000 0.000000 
1.850081 16.648158 2.705084 11.182900 -41.003205 17.568913 -5.987994 -4.718240 -5.061301 -1.330440 -4.243119 -4.030566 -3.854777 -4.346796 -1.220126 6.531172 -14.530797 -6.480774 -1.517171 -0.123924 0.246444 0.000000 0.000000 0.000000 11.157995 -3.247672 -5.847661 -86.419872 -62.150719 36.548317 179.682008 -72.761994 179.784046 12.170473 -17.875797 -2.100115 -0.161607 1.364559 -0.000000 0.000000 0.000000 0.000000 0.000000 0.000000 0.000000 1.228690 -9.779241 5.575359 36.412278 -24.391673 -18.723553 -0.012501 88.112195 -0.041000 -17.406855 14.657931 -2.366909 0.332094 -0.447078 -0.000000 0.000000 0.000000 0.000000 0.000000 0.000000 0.000000 
1.835775 16.691559 2.742150 11.686601 -39.470858 17.654075 -6.590574 -4.596569 -4.945633 -1.391144 -4.061484 -3.986020 -3.460391 -4.169649 -1.148154 5.803618 -14.401180 -6.520300 -1.290915 -0.105925 0.222280 0.000000 0.000000 0.000000 10.347841 -2.901103 -5.787105 -86.627032 -62.536854 37.417016 179.642391 -73.217656 179.785102 12.062053 -17.821272 -2.072417 -0.150952 1.350685 -0.000000 0.000000 0.000000 0.000000 0.000000 0.000000 0.000000 -0.219239 -9.291798 5.826002 33.992315 -24.078442 -18.829019 0.043524 86.761121 -0.039897 -17.396548 14.945461 -2.414125 0.341623 -0.458148 -0.000000 0.000000 0.000000 0.000000 0.000000 0.000000 0.000000 
1.829647 16.732151 2.777954 12.059244 -38.283435 17.764195 -7.068745 -4.417299 -4.802138 -1.425854 -3.832683 -3.944138 -3.050344 -3.945585 -1.109538 5.024653 -14.180942 -6.506084 -1.068633 -0.089104 0.212878 0.000000 0.000000 0.000000 9.448536 -2.529419 -5.713546 -86.813023 -62.946702 38.176997 179.594217 -73.678641 179.785603 11.947722 -17.777866 -2.044824 -0.138294 1.337232 -0.000000 0.000000 0.000000 0.000000 0.000000 0.000000 0.000000 -1.705046 -8.706043 6.062903 31.221524 -23.338232 -18.656356 0.111753 85.273088 -0.039313 -17.444038 15.278046 -2.477445 0.352863 -0.472462 -0.000000 0.000000 0.000000 0.000000 0.000000 0.000000 0.000000 
1.831244 16.769703 2.811835 12.316405 -37.440717 17.883891 -7.428386 -4.187419 -4.644050 -1.435160 -3.563406 -3.906583 -2.625858 -3.681336 -1.100638 4.192360 -13.858112 -6.437387 -0.854481 -0.073857 0.218931 0.000000 0.000000 0.000000 8.461009 -2.135495 -5.627055 -86.963191 -63.365898 38.800089 179.537159 -74.124550 179.785427 11.836374 -17.743088 -2.018635 -0.123920 1.324209 -0.000000 0.000000 0.000000 0.000000 0.000000 0.000000 0.000000 -3.205958 -8.030537 6.279273 28.106396 -22.111083 -18.234103 0.198930 83.522801 -0.039002 -17.503395 15.654409 -2.550374 0.364777 -0.489420 -0.000000 0.000000 0.000000 0.000000 0.000000 0.000000 0.000000 
